<svg width="35" height="28" viewBox="0 0 35 28" fill="none" xmlns="http://www.w3.org/2000/svg">
<path d="M23.6854 13.1404C23.8206 13.6606 23.3958 14.1449 22.8582 14.145L18.7764 14.1454C18.4892 14.1454 18.2203 14.0045 18.0569 13.7684L15.3656 9.87992C15.0689 9.45124 15.236 8.83728 15.7374 8.69449C16.2975 8.53498 16.8888 8.44959 17.5001 8.44959C20.4165 8.44959 22.8789 10.3935 23.6623 13.0563C23.67 13.0823 23.6777 13.1105 23.6854 13.1404Z" fill="white"/>
<path d="M14.099 10.6036C13.8043 10.178 13.1977 10.0913 12.8345 10.4603C12.8066 10.4886 12.7807 10.5158 12.7576 10.5411C11.7141 11.6831 11.0776 13.2033 11.0776 14.8721C11.0776 16.5548 11.7247 18.0864 12.7837 19.2316C12.7996 19.2487 12.8168 19.2667 12.8351 19.2855C13.1963 19.6555 13.8038 19.5669 14.0982 19.1418L16.7094 15.3702C16.9169 15.0705 16.9169 14.6737 16.7094 14.374L14.099 10.6036Z" fill="white"/>
<path d="M15.8447 21.0792C16.3728 21.2197 16.9277 21.2946 17.5001 21.2946C20.3965 21.2946 22.8451 19.3773 23.6459 16.7426C23.6585 16.7013 23.6712 16.6549 23.6839 16.605C23.8164 16.0832 23.3944 15.5984 22.856 15.5984L18.7756 15.598C18.4884 15.598 18.2194 15.7389 18.056 15.975L15.4056 19.8046C15.0883 20.2631 15.2698 20.9166 15.8062 21.0686C15.8194 21.0724 15.8322 21.0759 15.8447 21.0792Z" fill="white"/>
<path fill-rule="evenodd" clip-rule="evenodd" d="M16.6251 3.78876C16.6251 3.30551 17.0168 2.91376 17.5001 2.91376C17.9833 2.91376 18.3751 3.30551 18.3751 3.78876V4.51463C18.3751 4.86384 18.6015 5.17275 18.9345 5.27791L19.4872 5.45244C19.8303 5.52448 20.1668 5.61479 20.4955 5.72231L21.0549 5.84609C21.3959 5.92152 21.7464 5.76719 21.921 5.46477L22.284 4.83614C22.5256 4.41764 23.0607 4.27425 23.4792 4.51587C23.8978 4.75749 24.0411 5.29264 23.7995 5.71114L23.4366 6.33977C23.262 6.64219 23.3036 7.02291 23.5394 7.28049L23.9439 7.72229C24.1912 7.94532 24.4269 8.181 24.6499 8.42831L25.0917 8.83277C25.3493 9.06859 25.73 9.1102 26.0324 8.93559L26.661 8.57265C27.0795 8.33103 27.6147 8.47442 27.8563 8.89292C28.0979 9.31143 27.9545 9.84657 27.536 10.0882L26.9074 10.4511C26.605 10.6257 26.4507 10.9763 26.5261 11.3172L26.6499 11.8767C26.7574 12.2054 26.8477 12.5418 26.9197 12.885L27.0943 13.4377C27.1994 13.7707 27.5083 13.9971 27.8575 13.9971H28.5834C29.0667 13.9971 29.4584 14.3888 29.4584 14.8721C29.4584 15.3553 29.0667 15.7471 28.5834 15.7471H27.8575C27.5083 15.7471 27.1994 15.9735 27.0943 16.3065L26.9197 16.8592C26.8477 17.2024 26.7574 17.5388 26.6499 17.8674L26.5261 18.427C26.4507 18.7679 26.605 19.1184 26.9074 19.2931L27.536 19.656C27.9545 19.8976 28.0979 20.4328 27.8563 20.8513C27.6147 21.2698 27.0795 21.4132 26.661 21.1715L26.0324 20.8086C25.73 20.634 25.3493 20.6756 25.0917 20.9114L24.6499 21.3159C24.4268 21.5632 24.1912 21.7989 23.9439 22.0219L23.5394 22.4637C23.3036 22.7213 23.262 23.102 23.4366 23.4044L23.7995 24.033C24.0411 24.4515 23.8978 24.9867 23.4792 25.2283C23.0607 25.4699 22.5256 25.3265 22.284 24.908L21.921 24.2794C21.7464 23.977 21.3959 23.8227 21.0549 23.8981L20.4955 24.0219C20.1668 24.1294 19.8304 24.2197 19.4872 24.2917L18.9345 24.4663C18.6015 24.5714 18.3751 24.8803 18.3751 25.2296V25.9554C18.3751 26.4387 17.9833 26.8304 17.5001 26.8304C17.0168 26.8304 16.6251 26.4387 16.6251 25.9554V25.2296C16.6251 24.8803 16.3987 24.5714 16.0657 24.4663L15.513 24.2917C15.1698 24.2197 14.8334 24.1294 14.5047 24.0219L13.9452 23.8981C13.6042 23.8227 13.2537 23.977 13.0791 24.2794L12.7162 24.908C12.4746 25.3265 11.9394 25.4699 11.5209 25.2283C11.1024 24.9867 10.959 24.4515 11.2006 24.033L11.5636 23.4044C11.7382 23.102 11.6966 22.7213 11.4608 22.4637L11.0563 22.0219C10.809 21.7989 10.5733 21.5632 10.3502 21.3158L9.90848 20.9114C9.65091 20.6756 9.27019 20.634 8.96776 20.8086L8.33913 21.1715C7.92063 21.4132 7.38549 21.2698 7.14386 20.8513C6.90224 20.4328 7.04563 19.8976 7.46414 19.656L8.09276 19.2931C8.39519 19.1184 8.54951 18.7679 8.47408 18.427L8.35032 17.8675C8.24278 17.5388 8.15246 17.2024 8.08043 16.8592L7.9059 16.3065C7.80074 15.9735 7.49183 15.7471 7.14262 15.7471H6.41675C5.9335 15.7471 5.54175 15.3553 5.54175 14.8721C5.54175 14.3888 5.9335 13.9971 6.41675 13.9971H7.14262C7.49183 13.9971 7.80074 13.7707 7.9059 13.4377L8.08042 12.885C8.15246 12.5418 8.24277 12.2054 8.3503 11.8767L8.47407 11.3172C8.54951 10.9763 8.39518 10.6257 8.09275 10.4511L7.46413 10.0882C7.04562 9.84657 6.90223 9.31143 7.14386 8.89292C7.38548 8.47442 7.92062 8.33103 8.33913 8.57265L8.96775 8.93559C9.27018 9.11019 9.6509 9.06859 9.90847 8.83277L10.3503 8.42832C10.5733 8.181 10.809 7.94531 11.0563 7.72227L11.4608 7.28049C11.6966 7.02291 11.7382 6.64219 11.5636 6.33976L11.2006 5.71114C10.959 5.29264 11.1024 4.75749 11.5209 4.51587C11.9394 4.27425 12.4746 4.41764 12.7162 4.83614L13.0791 5.46476C13.2537 5.76719 13.6042 5.92152 13.9452 5.84609L14.5047 5.72231C14.8334 5.61479 15.1698 5.52447 15.513 5.45244L16.0657 5.27791C16.3987 5.17275 16.6251 4.86384 16.6251 4.51463V3.78876ZM17.5001 22.7471C21.8493 22.7471 25.3751 19.2213 25.3751 14.8721C25.3751 10.5228 21.8493 6.99709 17.5001 6.99709C13.1508 6.99709 9.62508 10.5228 9.62508 14.8721C9.62508 19.2213 13.1508 22.7471 17.5001 22.7471Z" fill="white"/>
</svg>
