<svg width="24" height="24" viewBox="0 0 24 24" fill="none" xmlns="http://www.w3.org/2000/svg">
<path fill-rule="evenodd" clip-rule="evenodd" d="M7.33749 4.3429L7.37148 4.3429H16.6286L16.6626 4.3429C17.4738 4.34289 18.1312 4.34288 18.6642 4.38643C19.2139 4.43134 19.7014 4.52654 20.1538 4.75707C20.8688 5.12139 21.4501 5.70272 21.8145 6.41773C22.045 6.87017 22.1402 7.35763 22.1851 7.90736C22.2286 8.4403 22.2286 9.09763 22.2286 9.90882V9.9429V14.0572V14.0913C22.2286 14.9024 22.2286 15.5598 22.1851 16.0927C22.1402 16.6425 22.045 17.1299 21.8145 17.5823C21.4501 18.2974 20.8688 18.8787 20.1538 19.243C19.7014 19.4735 19.2139 19.5687 18.6642 19.6137C18.1312 19.6572 17.4738 19.6572 16.6626 19.6572H16.6286H7.37149H7.33751C6.52628 19.6572 5.86892 19.6572 5.33595 19.6137C4.78622 19.5687 4.29876 19.4735 3.84632 19.243C3.1313 18.8787 2.54998 18.2974 2.18566 17.5823C1.95513 17.1299 1.85993 16.6425 1.81501 16.0927C1.77147 15.5598 1.77148 14.9024 1.77148 14.0912L1.77148 14.0572V9.94289L1.77148 9.9089C1.77148 9.09767 1.77147 8.44032 1.81501 7.90736C1.85993 7.35763 1.95513 6.87017 2.18566 6.41773C2.54998 5.70272 3.1313 5.12139 3.84632 4.75707C4.29876 4.52654 4.78622 4.43134 5.33595 4.38643C5.86891 4.34288 6.52626 4.34289 7.33749 4.3429ZM5.46624 5.98111C5.01545 6.01794 4.762 6.08623 4.57271 6.18268C4.15875 6.3936 3.82219 6.73016 3.61127 7.14412C3.51482 7.33341 3.44653 7.58686 3.4097 8.03765C3.39534 8.21346 3.38637 8.40851 3.38077 8.63002C3.39661 8.62908 3.41256 8.62861 3.42863 8.62861H20.5715C20.5876 8.62861 20.6035 8.62909 20.6193 8.63002C20.6137 8.40851 20.6048 8.21346 20.5904 8.03765C20.5536 7.58686 20.4853 7.33341 20.3888 7.14412C20.1779 6.73016 19.8414 6.3936 19.4274 6.18268C19.2381 6.08623 18.9847 6.01794 18.5339 5.98111C18.0738 5.94352 17.4819 5.9429 16.6286 5.9429H7.37148C6.5182 5.9429 5.92636 5.94352 5.46624 5.98111ZM20.6286 10.2266C20.6098 10.2279 20.5907 10.2286 20.5715 10.2286H3.42863C3.40941 10.2286 3.39036 10.2279 3.37148 10.2266V14.0572C3.37148 14.9105 3.37211 15.5023 3.4097 15.9624C3.44653 16.4132 3.51482 16.6667 3.61127 16.856C3.82219 17.2699 4.15875 17.6065 4.57271 17.8174C4.762 17.9138 5.01545 17.9821 5.46624 18.019C5.92636 18.0566 6.51821 18.0572 7.37149 18.0572H16.6286C17.4819 18.0572 18.0738 18.0566 18.5339 18.019C18.9847 17.9821 19.2381 17.9138 19.4274 17.8174C19.8414 17.6065 20.1779 17.2699 20.3888 16.856C20.4853 16.6667 20.5536 16.4132 20.5904 15.9624C20.628 15.5023 20.6286 14.9105 20.6286 14.0572V10.2266ZM5.14291 15C5.14291 14.7344 5.14291 14.6017 5.16799 14.4918C5.25346 14.1173 5.5459 13.8249 5.92039 13.7394C6.03024 13.7143 6.16304 13.7143 6.42863 13.7143H7.28577C7.55136 13.7143 7.68416 13.7143 7.79401 13.7394C8.1685 13.8249 8.46094 14.1173 8.54641 14.4918C8.57148 14.6017 8.57148 14.7344 8.57148 15C8.57148 15.2656 8.57148 15.3984 8.54641 15.5083C8.46094 15.8828 8.1685 16.1752 7.79401 16.2607C7.68416 16.2858 7.55136 16.2858 7.28577 16.2858H6.42863C6.16304 16.2858 6.03024 16.2858 5.92039 16.2607C5.5459 16.1752 5.25346 15.8828 5.16799 15.5083C5.14291 15.3984 5.14291 15.2656 5.14291 15Z" fill="white"/>
</svg>
